<svg xmlns:dc="http://purl.org/dc/elements/1.1/" xmlns:cc="http://creativecommons.org/ns#" xmlns:rdf="http://www.w3.org/1999/02/22-rdf-syntax-ns#" xmlns:svg="http://www.w3.org/2000/svg" xmlns="http://www.w3.org/2000/svg" xmlns:xlink="http://www.w3.org/1999/xlink" id="svg82849" viewBox="0 0 1024 768" height="768px" width="1024px" version="1.1">
  <metadata id="metadata82855">
    <rdf:rdf>
      <cc:work rdf:about="">
        <dc:format>image/svg+xml</dc:format>
        <dc:type rdf:resource="http://purl.org/dc/dcmitype/StillImage"/>
      </cc:work>
    </rdf:rdf>
  </metadata>
  <defs id="defs82853"/>
  <linearGradient spreadMethod="pad" y2="30%" x2="-10%" y1="120%" x1="30%" id="3d_gradient2-logo-7af8bce1-49ea-4b16-8f63-780c35579279">
    <stop id="stop82830" stop-opacity="1" stop-color="#ffffff" offset="0%"/>
    <stop id="stop82832" stop-opacity="1" stop-color="#000000" offset="100%"/>
  </linearGradient>
  <linearGradient gradientTransform="rotate(-30)" spreadMethod="pad" y2="30%" x2="-10%" y1="120%" x1="30%" id="3d_gradient3-logo-7af8bce1-49ea-4b16-8f63-780c35579279">
    <stop id="stop82835" stop-opacity="1" stop-color="#ffffff" offset="0%"/>
    <stop id="stop82837" stop-opacity="1" stop-color="#cccccc" offset="50%"/>
    <stop id="stop82839" stop-opacity="1" stop-color="#000000" offset="100%"/>
  </linearGradient>
  <g id="logo-group">
    <image xlink:href="" id="container" x="272" y="144" width="480" height="480" style="display: none;" transform="translate(0 0)"/>
    <g id="logo-center" transform="translate(0 0)">
      <image xlink:href="" id="icon_container" style="display: none;" x="0" y="0"/>
      <g id="slogan" style="font-style:normal;font-weight:400;font-size:32px;line-height:1;font-family:Raleway;font-variant-ligatures:none;text-align:center;text-anchor:middle" transform="translate(0 0)"/>
      <g id="title" style="font-style:normal;font-weight:700;font-size:72px;line-height:1;font-family:'Brandmark Sans 4 Spectrum';font-variant-ligatures:normal;text-align:center;text-anchor:middle" transform="translate(0 0)">
        <g id="path82858" aria-label="l" transform="translate(0 313.07248) translate(327.96287659999996 6.779839999999993) scale(1.86) translate(-419.88781 50.256)"> <polyline class="c1" points="104.3541,74.8159 95.6459,74.8159 95.6459,125.1841 104.3541,125.1841 104.3541,74.8159 " transform="translate(324.24191 -125.0719)" stroke-width="0" stroke-linejoin="miter" stroke-miterlimit="2" fill="#60a332" stroke="#60a332"/> </g>
        <g id="path82860" aria-label="u" transform="translate(0 313.07248) translate(358.48990339999995 41.331199999999995) scale(1.86) translate(-434.30019 31.68)"> <path class="c1" d="M105.2132,84.1453v17.7883c0,2.8793-2.3342,5.2135-5.2135,5.2135c-2.8792,0-5.2135-2.33421-5.2135-5.2135 V84.1453h-8.7071v17.7883c0.00021,4.6274,2.29971,8.9523,6.1358,11.5402c3.8362,2.5877,8.7076,3.1003,12.9983,1.3674 c5.2582-2.1302,8.7014-7.2343,8.7077-12.9076V84.1453H105.2132z" transform="translate(348.22109 -115.8253)" stroke-width="0" stroke-linejoin="miter" stroke-miterlimit="2" fill="#60a332" stroke="#60a332"/> <rect x="105.2132" y="84.1453" class="c3" width="8.7077" height="31.7094" transform="translate(348.22109 -115.8253)" stroke-width="0" stroke-linejoin="miter" stroke-miterlimit="2" fill="#b9d79e" stroke="#b9d79e"/> <path class="c2" d="M105.2132,84.1453v17.7883v12.9076c5.2582-2.1302,8.7014-7.2343,8.7077-12.9076V84.1453H105.2132z" transform="translate(348.22109 -115.8253)" stroke-width="0" stroke-linejoin="miter" stroke-miterlimit="2" fill="#8cbd68" stroke="#8cbd68"/> </g>
        <g id="path82862" aria-label="x" transform="translate(0 313.07248) translate(424.72333160000005 41.331199999999995) scale(1.86) translate(-467.90956 31.68)"> <path class="c1" d="M112.96942,84.1564h-8.70773v7.225c0,2.3537-1.9082,4.2619-4.262,4.2619 c-2.3537,0-4.26189-1.9082-4.26189-4.2619v-7.226h-8.7077v7.226c-0.0029,3.1782,1.1661,6.2459,3.2834,8.6162 c0.1653-0.18629,0.3296-0.3499,0.4934-0.49889c-0.1647,0.1665-0.3372,0.3237-0.4934,0.49979 c2.45792,2.7692,5.9835,4.3541,9.6862,4.3541c3.70273,0,7.2284-1.5849,9.68633-4.3541c-0.0008-0.0009-0.0019-0.0018-0.0027-0.0028 c0.0007,0.0008,0.00201,0.001,0.0027,0.0019c2.1175-2.3703,3.28661-5.438,3.28381-8.6162v-7.226L112.96942,84.1564z" transform="translate(380.879465 -115.8354)" stroke-width="0" stroke-linejoin="miter" stroke-miterlimit="2" fill="#60a332" stroke="#60a332"/> <path class="c3" d="M87.0306,115.8436h8.7077v-7.2249c0-2.3538,1.90813-4.262,4.2619-4.262 c2.3537,0,4.2619,1.9082,4.2619,4.262v7.2259h8.70773v-7.2259c0.0029-3.1783-1.166-6.24599-3.2833-8.61629 c-0.1654,0.18629-0.3296,0.3499-0.4935,0.49889c0.1647-0.1665,0.3372-0.3237,0.4935-0.49979 c-2.45792-2.7692-5.98363-4.354-9.68633-4.354s-7.2284,1.5848-9.6863,4.354c0.0009,0.0009,0.0019,0.0018,0.0027,0.0028 c-0.0007-0.0008-0.002-0.001-0.0027-0.0019c-2.1174,2.3703-3.2866,5.438-3.2838,8.61629v7.2259L87.0306,115.8436z" transform="translate(380.879465 -115.8354)" stroke-width="0" stroke-linejoin="miter" stroke-miterlimit="2" fill="#b9d79e" stroke="#b9d79e"/> <path class="c2" d="M109.68482,99.9998c-2.45773-2.7681-5.98273-4.3523-9.68462-4.3523c-3.7021,0-7.2271,1.5843-9.6851,4.3528 c2.4577,2.76801,5.9827,4.3523,9.6846,4.3523C103.7018,104.3526,107.2269,102.7682,109.68482,99.9998z" transform="translate(380.879465 -115.8354)" stroke-width="0" stroke-linejoin="miter" stroke-miterlimit="2" fill="#8cbd68" stroke="#8cbd68"/> </g>
        <path id="path82864" style="font-style:normal;font-weight:700;font-size:72px;line-height:1;font-family:'Brandmark Sans 4 Spectrum';font-variant-ligatures:normal;text-align:center;text-anchor:middle" d="M 522.59019,-21.528 V -28.8 h -22.968 v 7.272 z" stroke-width="0" stroke-linejoin="miter" stroke-miterlimit="2" fill="#76b04d" stroke="#76b04d" transform="translate(0 313.07248) translate(487.4288234 46.687999999999995) scale(1.86) translate(-499.62219 28.8)"/>
        <g id="path82866" aria-label="p" transform="translate(0 313.07248) translate(544.5075734000001 41.331199999999995) scale(1.86) translate(-528.30969 31.68)"> <path class="c3" d="M100.00169,74.8158c-6.4082-0.00031-12.1856,3.85989-14.638,9.7803 c-2.45229,5.9204-1.09689,12.7351,3.4344,17.2664c4.5313,4.5313,11.346,5.8868,17.2665,3.43439 c5.92039-2.4524,9.78049-8.2298,9.7802-14.638C115.8345,81.9133,108.7473,74.8262,100.00169,74.8158 M100.00169,97.7943 c-2.8865,0.00021-5.4888-1.7384-6.5935-4.405c-1.1048-2.66679-0.4943-5.7364,1.5466-7.7774 c2.041-2.0411,5.1106-2.6518,7.7774-1.5472c2.6667,1.1045,4.4055,3.7068,4.4055,6.5933 C107.13319,94.5972,103.94099,97.7895,100.00169,97.7943" transform="translate(444.154493 -106.495697)" stroke-width="0" stroke-linejoin="miter" stroke-miterlimit="2" fill="#b9d79e" stroke="#b9d79e"/> <rect x="84.1552" y="74.8157" class="c1" width="8.7076" height="50.3686" transform="translate(444.154493 -106.495697)" stroke-width="0" stroke-linejoin="miter" stroke-miterlimit="2" fill="#60a332" stroke="#60a332"/> <path class="c2" d="M92.86279,76.5251c-3.31609,1.6757-6.017,4.493-7.4991,8.071 c-2.45239,5.9204-1.09689,12.7351,3.4344,17.2664c1.211,1.211,2.5882,2.18729,4.0647,2.9325V76.5251z" transform="translate(444.154493 -106.495697)" stroke-width="0" stroke-linejoin="miter" stroke-miterlimit="2" fill="#8cbd68" stroke="#8cbd68"/> </g>
        <g id="path82868" aria-label="i" transform="translate(0 313.07248) translate(616.4953766 6.913759999999996) scale(1.86) translate(-565.01281 50.184)"> <polyline class="c1" points="104.3538,93.4688 95.64619,93.4688 95.64619,125.1134 104.3538,125.1134 104.3538,93.4688 " transform="translate(469.36662 -125.0706)" stroke-width="0" stroke-linejoin="miter" stroke-miterlimit="2" fill="#60a332" stroke="#60a332"/> <polyline class="c3" points="104.3538,74.8866 95.64619,74.8866 95.64619,84.078 104.3538,84.078 104.3538,74.8866 " transform="translate(469.36662 -125.0706)" stroke-width="0" stroke-linejoin="miter" stroke-miterlimit="2" fill="#b9d79e" stroke="#b9d79e"/> </g>
        <g id="path82870" aria-label="c" transform="translate(0 313.07248) translate(645.7501634 41.13032) scale(1.86) translate(-578.74119 31.788)"> <path class="c1" d="M102.321,84.1562c-7.1709,0-13.4477,4.81641-15.3037,11.7429 c-1.8559,6.9266,1.1717,14.2361,7.38181,17.8216c6.21,3.58559,14.05409,2.55299,19.12479-2.5175l-6.1572-6.1573 c-2.04089,2.0409-5.1102,2.6515-7.7767,1.547c-2.6665-1.1045-4.40518-3.7066-4.40518-6.5928s1.73869-5.4883,4.40518-6.5928 c2.6665-1.1045,5.73582-0.494,7.7767,1.5469l6.1572-6.1577C110.5593,85.8154,106.5253,84.1445,102.321,84.1562" transform="translate(492.265161 -115.944139)" stroke-width="0" stroke-linejoin="miter" stroke-miterlimit="2" fill="#60a332" stroke="#60a332"/> </g>
            </g>
      <image xlink:href="" id="icon" style="display: none;" x="0" y="0"/>
    </g>
  </g>
</svg>