<svg y="546.165" x="984.5" version="1.1" width="363" height="77" viewBox="0 0 363 77" id="svg99882" xmlns:xlink="http://www.w3.org/1999/xlink" xmlns="http://www.w3.org/2000/svg" xmlns:svg="http://www.w3.org/2000/svg" xmlns:rdf="http://www.w3.org/1999/02/22-rdf-syntax-ns#" xmlns:cc="http://creativecommons.org/ns#" xmlns:dc="http://purl.org/dc/elements/1.1/">
 <metadata id="metadata99888">image/svg+xml</metadata>

 <linearGradient id="3d_gradient2-logo-13e9289b-2786-4bb7-87df-1b81f42c45cd" x1="30%" y1="120%" x2="-10%" y2="30%" spreadMethod="pad">
  <stop offset="0%" stop-color="#ffffff" id="stop99863"/>
  <stop offset="100%" stop-color="#000000" id="stop99865"/>
 </linearGradient>
 <linearGradient id="3d_gradient3-logo-13e9289b-2786-4bb7-87df-1b81f42c45cd" x1="30%" y1="120%" x2="-10%" y2="30%" spreadMethod="pad" gradientTransform="rotate(-30)">
  <stop offset="0%" stop-color="#ffffff" id="stop99868"/>
  <stop offset="50%" stop-color="#cccccc" id="stop99870"/>
  <stop offset="100%" stop-color="#000000" id="stop99872"/>
 </linearGradient>
 <g id="logo-group">
  <g id="logo-center">
   <image width="0" height="0" y="-345.59592" x="-330.64691" id="icon_container"/>
   <g text-anchor="middle" font-family="'Open Sans'" font-size="32px" font-weight="600" font-style="normal" transform="translate(0 0)" id="slogan"/>
   <g text-anchor="middle" font-family="'Montserrat Light Alt1'" font-size="72px" font-weight="300" font-style="normal" transform="translate(0 0)" id="title">
    <path transform="translate(-330.647 -345.596) translate(0 318.568)" stroke="#485e9d" fill="#485e9d" stroke-miterlimit="2" stroke-width="0" d="m377.80263,37.83848c-5.148,-4.32432 -12.25224,-6.48648 -21.31272,-6.48648l-25.84296,0l0,4.73616l25.84296,0c7.61904,0 13.48776,1.75032 17.60616,5.148c4.01544,3.39768 6.07464,8.2368 6.07464,14.4144c0,6.28056 -2.0592,11.11968 -6.07464,14.4144c-4.1184,3.39768 -9.98712,5.04504 -17.60616,5.04504l-25.84296,0l0,28.314l5.25096,0l0,-23.57784l20.592,0c9.06048,0 16.16472,-2.0592 21.31272,-6.38352c5.148,-4.32432 7.722,-10.19304 7.722,-17.81208c0,-7.51608 -2.574,-13.48776 -7.722,-17.81208z" id="path99891"/>
    <path transform="translate(-330.647 -345.596) translate(0 318.568)" stroke="#4d71a9" fill="#4d71a9" stroke-miterlimit="2" stroke-width="0" d="m405.70567,49.67888l0,53.74512l5.148,0l0,-53.74512l-5.148,0zm-0.41184,-14.20848c0.82368,0.82368 1.75032,1.13256 2.98584,1.13256c1.13256,0 2.16216,-0.41184 2.98584,-1.23552c0.82368,-0.82368 1.23552,-1.75032 1.23552,-2.98584c0,-1.13256 -0.41184,-2.0592 -1.23552,-2.88288c-0.82368,-0.82368 -1.85328,-1.23552 -2.98584,-1.23552c-1.23552,0 -2.16216,0.41184 -2.98584,1.23552c-0.82368,0.82368 -1.23552,1.85328 -1.23552,2.98584c0,1.23552 0.41184,2.16216 1.23552,2.98584z" id="path99893"/>
    <path transform="translate(-330.647 -345.596) translate(0 318.568)" stroke="#5284b5" fill="#5284b5" stroke-miterlimit="2" stroke-width="0" d="m445.6824,100.3352c4.1184,2.36808 8.7516,3.50064 14.00256,3.50064c4.32432,0 8.2368,-0.82368 11.73744,-2.47104c3.50064,-1.64736 6.38352,-4.1184 8.64864,-7.41312l-3.80952,-2.77992c-1.95624,2.67696 -4.32432,4.73616 -7.2072,6.07464c-2.88288,1.33848 -5.97168,1.95624 -9.36936,1.95624c-4.22136,0 -8.03088,-0.92664 -11.3256,-2.77992c-3.29472,-1.85328 -5.97168,-4.53024 -7.82496,-8.03088c-1.85328,-3.39768 -2.77992,-7.31016 -2.77992,-11.8404c0,-4.42728 0.92664,-8.33976 2.77992,-11.8404c1.85328,-3.39768 4.53024,-6.07464 7.82496,-7.92792c3.29472,-1.85328 7.10424,-2.88288 11.3256,-2.88288c3.39768,0 6.48648,0.72072 9.36936,2.0592c2.88288,1.33848 5.25096,3.29472 7.2072,5.97168l3.80952,-2.77992c-2.26512,-3.19176 -5.148,-5.6628 -8.64864,-7.31016c-3.50064,-1.64736 -7.41312,-2.574 -11.73744,-2.574c-5.25096,0 -9.88416,1.23552 -14.00256,3.50064c-4.1184,2.26512 -7.41312,5.55984 -9.67824,9.67824c-2.36808,4.1184 -3.50064,8.85456 -3.50064,14.10552c0,5.25096 1.13256,9.98712 3.50064,14.10552c2.26512,4.1184 5.55984,7.41312 9.67824,9.67824z" id="path99895"/>
    <path transform="translate(-330.647 -345.596) translate(0 318.568)" stroke="#5898c1" fill="#5898c1" stroke-miterlimit="2" stroke-width="0" d="m496.27047,73.46264l0,4.6332l26.46072,0l0,-4.6332l-26.46072,0z" id="path99897"/>
    <path transform="translate(-330.647 -345.596) translate(0 318.568)" stroke="#5dabcd" fill="#5dabcd" stroke-miterlimit="2" stroke-width="0" d="m545.73392,27.02768l0,76.39632l5.148,0l0,-76.39632l-5.148,0z" id="path99899"/>
    <path transform="translate(-330.647 -345.596) translate(0 318.568)" stroke="#62bed9" fill="#62bed9" stroke-miterlimit="2" stroke-width="0" d="m625.45324,49.67888l-5.148,0l0,28.62288c0,6.38352 -1.85328,11.53152 -5.35392,15.23808c-3.50064,3.80952 -8.33976,5.6628 -14.31144,5.6628c-5.6628,0 -9.98712,-1.5444 -13.07592,-4.73616c-3.0888,-3.0888 -4.6332,-7.722 -4.6332,-13.79664l0,-30.99096l-5.148,0l0,31.4028c0,7.41312 1.95624,12.97296 5.97168,16.88544c3.91248,3.91248 9.47232,5.86872 16.4736,5.86872c4.73616,0 8.85456,-1.0296 12.3552,-3.0888c3.50064,-2.0592 6.07464,-5.04504 7.92792,-8.85456l0,11.53152l4.94208,0l0,-53.74512z" id="path99901"/>
    <path transform="translate(-330.647 -345.596) translate(0 318.568)" stroke="#67d1e5" fill="#67d1e5" stroke-miterlimit="2" stroke-width="0" d="m687.27838,103.424l6.07464,0l-21.6216,-27.69624l20.18016,-26.04888l-5.76576,0l-17.29728,22.34232l-17.29728,-22.34232l-5.86872,0l20.18016,26.04888l-21.31272,27.69624l5.86872,0l18.42984,-23.98968l18.42984,23.98968z" id="path99903"/>
   </g>
   <image width="0" height="0" y="-345.59592" x="-330.64691" id="icon"/>
  </g>
 </g>
</svg>